<svg xmlns="http://www.w3.org/2000/svg" fill="currentColor" viewBox="0 0 29 28"><g id="floppy" fill="#000"><path id="Rectangle 18" d="M.5 0h2.154v2.154H.5z"/><path id="Rectangle 17" d="M.5 2.154h2.154v2.154H.5z"/><path id="Rectangle 19" d="M.5 4.308h2.154v2.154H.5z"/><path id="Rectangle 20" d="M.5 6.462h2.154v2.154H.5z"/><path id="Rectangle 21" d="M.5 8.615h2.154v2.154H.5z"/><path id="Rectangle 22" d="M.5 10.769h2.154v2.154H.5z"/><path id="Rectangle 23" d="M.5 12.923h2.154v2.154H.5z"/><path id="Rectangle 24" d="M.5 15.077h2.154v2.154H.5z"/><path id="Rectangle 25" d="M.5 17.231h2.154v2.154H.5z"/><path id="Rectangle 26" d="M.5 19.385h2.154v2.154H.5z"/><path id="Rectangle 27" d="M.5 21.538h2.154v2.154H.5z"/><path id="Rectangle 28" d="M.5 23.692h2.154v2.154H.5z"/><path id="Rectangle 29" d="M.5 25.846h2.154V28H.5z"/><path id="Rectangle 32" d="M24.193 0h2.154v2.154h-2.154z" transform="rotate(90 24.193 0)"/><path id="Rectangle 33" d="M22.039 0h2.154v2.154h-2.154z" transform="rotate(90 22.04 0)"/><path id="Rectangle 34" d="M19.884 0h2.154v2.154h-2.154z" transform="rotate(90 19.884 0)"/><path id="Rectangle 35" d="M17.73 0h2.154v2.154H17.73z" transform="rotate(90 17.73 0)"/><path id="Rectangle 36" d="M15.577 0h2.154v2.154h-2.154z" transform="rotate(90 15.577 0)"/><path id="Rectangle 37" d="M13.423 0h2.154v2.154h-2.154z" transform="rotate(90 13.423 0)"/><path id="Rectangle 38" d="M11.27 0h2.154v2.154H11.27z" transform="rotate(90 11.27 0)"/><path id="Rectangle 39" d="M9.116 0h2.154v2.154H9.116z" transform="rotate(90 9.116 0)"/><path id="Rectangle 40" d="M6.961 0h2.154v2.154H6.961z" transform="rotate(90 6.96 0)"/><path id="Rectangle 41" d="M4.807 0h2.154v2.154H4.807z" transform="rotate(90 4.807 0)"/><path id="Rectangle 65" d="M26.346 2.154H28.5v2.154h-2.154z" transform="rotate(90 26.346 2.154)"/><path id="Rectangle 85" d="M6.961 4.308h2.154v2.154H6.961z" transform="rotate(90 6.96 4.308)"/><path id="Rectangle 176" d="M6.961 2.154h2.154v2.154H6.961z" transform="rotate(90 6.96 2.154)"/><path id="Rectangle 96" d="M6.961 6.462h2.154v2.154H6.961z" transform="rotate(90 6.96 6.462)"/><path id="Rectangle 177" d="M22.039 4.308h2.154v2.154h-2.154z" transform="rotate(90 22.04 4.308)"/><path id="Rectangle 178" d="M22.039 2.154h2.154v2.154h-2.154z" transform="rotate(90 22.04 2.154)"/><path id="Rectangle 179" d="M22.039 6.462h2.154v2.154h-2.154z" transform="rotate(90 22.04 6.462)"/><path id="Rectangle 180" d="M17.73 4.308h2.154v2.154H17.73z" transform="rotate(90 17.73 4.308)"/><path id="Rectangle 181" d="M17.73 2.154h2.154v2.154H17.73z" transform="rotate(90 17.73 2.154)"/><path id="Rectangle 182" d="M17.73 6.462h2.154v2.154H17.73z" transform="rotate(90 17.73 6.462)"/><path id="Rectangle 100" d="M22.039 8.615h2.154v2.154h-2.154z" transform="rotate(90 22.04 8.615)"/><path id="Rectangle 101" d="M19.884 8.615h2.154v2.154h-2.154z" transform="rotate(90 19.884 8.615)"/><path id="Rectangle 102" d="M17.73 8.615h2.154v2.154H17.73z" transform="rotate(90 17.73 8.615)"/><path id="Rectangle 103" d="M15.577 8.615h2.154v2.154h-2.154z" transform="rotate(90 15.577 8.615)"/><path id="Rectangle 104" d="M13.423 8.615h2.154v2.154h-2.154z" transform="rotate(90 13.423 8.615)"/><path id="Rectangle 105" d="M11.27 8.615h2.154v2.154H11.27z" transform="rotate(90 11.27 8.615)"/><path id="Rectangle 106" d="M9.116 8.615h2.154v2.154H9.116z" transform="rotate(90 9.116 8.615)"/><path id="Rectangle 107" d="M6.961 8.615h2.154v2.154H6.961z" transform="rotate(90 6.96 8.615)"/><path id="Rectangle 132" d="M24.193 15.077h2.154v2.154h-2.154z" transform="rotate(90 24.193 15.077)"/><path id="Rectangle 133" d="M22.039 15.077h2.154v2.154h-2.154z" transform="rotate(90 22.04 15.077)"/><path id="Rectangle 134" d="M19.884 15.077h2.154v2.154h-2.154z" transform="rotate(90 19.884 15.077)"/><path id="Rectangle 135" d="M17.73 15.077h2.154v2.154H17.73z" transform="rotate(90 17.73 15.077)"/><path id="Rectangle 136" d="M15.577 15.077h2.154v2.154h-2.154z" transform="rotate(90 15.577 15.077)"/><path id="Rectangle 137" d="M13.423 15.077h2.154v2.154h-2.154z" transform="rotate(90 13.423 15.077)"/><path id="Rectangle 138" d="M11.27 15.077h2.154v2.154H11.27z" transform="rotate(90 11.27 15.077)"/><path id="Rectangle 139" d="M9.116 15.077h2.154v2.154H9.116z" transform="rotate(90 9.116 15.077)"/><path id="Rectangle 140" d="M6.961 15.077h2.154v2.154H6.961z" transform="rotate(90 6.96 15.077)"/><path id="Rectangle 143" d="M24.193 17.231h2.154v2.154h-2.154z" transform="rotate(90 24.193 17.23)"/><path id="Rectangle 151" d="M6.961 17.231h2.154v2.154H6.961z" transform="rotate(90 6.96 17.23)"/><path id="Rectangle 154" d="M24.193 19.385h2.154v2.154h-2.154z" transform="rotate(90 24.193 19.385)"/><path id="Rectangle 162" d="M6.961 19.385h2.154v2.154H6.961z" transform="rotate(90 6.96 19.385)"/><path id="Rectangle 165" d="M24.193 21.538h2.154v2.154h-2.154z" transform="rotate(90 24.193 21.538)"/><path id="Rectangle 173" d="M6.961 21.538h2.154v2.154H6.961z" transform="rotate(90 6.96 21.538)"/><path id="Rectangle 174" d="M6.961 23.692h2.154v2.154H6.961z" transform="rotate(90 6.96 23.692)"/><path id="Rectangle 175" d="M24.193 23.692h2.154v2.154h-2.154z" transform="rotate(90 24.193 23.692)"/><path id="Rectangle 54" d="M26.346 25.846H28.5V28h-2.154z" transform="rotate(90 26.346 25.846)"/><path id="Rectangle 55" d="M24.193 25.846h2.154V28h-2.154z" transform="rotate(90 24.193 25.846)"/><path id="Rectangle 56" d="M22.039 25.846h2.154V28h-2.154z" transform="rotate(90 22.04 25.846)"/><path id="Rectangle 57" d="M19.884 25.846h2.154V28h-2.154z" transform="rotate(90 19.884 25.846)"/><path id="Rectangle 58" d="M17.73 25.846h2.154V28H17.73z" transform="rotate(90 17.73 25.846)"/><path id="Rectangle 59" d="M15.577 25.846h2.154V28h-2.154z" transform="rotate(90 15.577 25.846)"/><path id="Rectangle 60" d="M13.423 25.846h2.154V28h-2.154z" transform="rotate(90 13.423 25.846)"/><path id="Rectangle 61" d="M11.27 25.846h2.154V28H11.27z" transform="rotate(90 11.27 25.846)"/><path id="Rectangle 62" d="M9.116 25.846h2.154V28H9.116z" transform="rotate(90 9.116 25.846)"/><path id="Rectangle 63" d="M6.961 25.846h2.154V28H6.961z" transform="rotate(90 6.96 25.846)"/><path id="Rectangle 64" d="M4.807 25.846h2.154V28H4.807z" transform="rotate(90 4.807 25.846)"/><path id="Rectangle 42" d="M28.5 28h2.154v2.154H28.5z" transform="rotate(-180 28.5 28)"/><path id="Rectangle 43" d="M28.5 25.846h2.154V28H28.5z" transform="rotate(-180 28.5 25.846)"/><path id="Rectangle 44" d="M28.5 23.692h2.154v2.154H28.5z" transform="rotate(-180 28.5 23.692)"/><path id="Rectangle 45" d="M28.5 21.538h2.154v2.154H28.5z" transform="rotate(-180 28.5 21.538)"/><path id="Rectangle 46" d="M28.5 19.385h2.154v2.154H28.5z" transform="rotate(-180 28.5 19.385)"/><path id="Rectangle 47" d="M28.5 17.231h2.154v2.154H28.5z" transform="rotate(-180 28.5 17.23)"/><path id="Rectangle 48" d="M28.5 15.077h2.154v2.154H28.5z" transform="rotate(-180 28.5 15.077)"/><path id="Rectangle 49" d="M28.5 12.923h2.154v2.154H28.5z" transform="rotate(-180 28.5 12.923)"/><path id="Rectangle 50" d="M28.5 10.769h2.154v2.154H28.5z" transform="rotate(-180 28.5 10.77)"/><path id="Rectangle 51" d="M28.5 8.615h2.154v2.154H28.5z" transform="rotate(-180 28.5 8.615)"/><path id="Rectangle 52" d="M28.5 6.462h2.154v2.154H28.5z" transform="rotate(-180 28.5 6.462)"/></g></svg>
